<?xml version="1.0" standalone="no"?>
<!DOCTYPE svg PUBLIC "-//W3C//DTD SVG 20010904//EN"
 "http://www.w3.org/TR/2001/REC-SVG-20010904/DTD/svg10.dtd">
<svg version="1.0" xmlns="http://www.w3.org/2000/svg"
 width="998.000000pt" height="998.000000pt" viewBox="0 0 998.000000 998.000000"
 preserveAspectRatio="xMidYMid meet">
<metadata>
Created by potrace 1.11, written by Peter Selinger 2001-2013
</metadata>
<g transform="translate(0.000000,998.000000) scale(0.100000,-0.100000)"
fill="#000000" stroke="none">
<path d="M4498 9974 c-3 -2 -31 -6 -64 -8 -32 -2 -59 -5 -59 -6 0 -1 -18 -3
-40 -6 -22 -2 -62 -9 -90 -14 -27 -5 -63 -12 -80 -15 -68 -11 -98 -20 -259
-76 -168 -59 -284 -112 -299 -136 -4 -7 -12 -13 -18 -13 -11 0 -72 -41 -77
-52 -2 -5 -8 -8 -13 -8 -6 0 -20 -10 -33 -22 -13 -13 -51 -47 -85 -77 -72 -62
-132 -139 -151 -193 -8 -21 -17 -38 -20 -38 -4 0 -7 -6 -7 -14 0 -8 -7 -29
-16 -48 -24 -52 -66 -203 -80 -293 -13 -83 -15 -336 -3 -415 4 -25 9 -54 10
-65 2 -11 9 -40 16 -65 7 -25 14 -55 16 -67 2 -12 26 -85 54 -162 27 -78 46
-141 41 -141 -4 0 -37 10 -72 23 -67 24 -86 24 -105 -1 -11 -15 2 -81 19 -98
4 -4 7 -13 7 -20 0 -7 5 -25 12 -41 13 -34 10 -24 48 -153 16 -58 33 -118 36
-135 2 -16 10 -48 16 -70 5 -22 11 -44 13 -50 1 -5 5 -19 9 -30 5 -11 13 -33
19 -50 13 -35 51 -71 83 -79 13 -4 36 -11 51 -18 15 -6 30 -12 33 -12 3 -1 10
-4 15 -7 6 -4 24 -10 40 -14 17 -5 37 -10 45 -12 8 -3 23 -4 33 -4 9 0 18 -3
18 -7 1 -4 3 -16 4 -27 8 -77 103 -188 269 -317 34 -26 65 -48 69 -48 4 0 22
-13 40 -30 18 -16 35 -30 39 -30 12 0 2 -44 -10 -48 -7 -2 -10 -7 -7 -12 3 -4
-21 -7 -53 -6 -31 1 -67 -2 -80 -6 -13 -4 -21 -5 -19 0 3 4 -14 6 -36 5 -23
-2 -106 -5 -185 -7 l-143 -4 -87 -91 c-164 -171 -201 -217 -197 -241 6 -33 15
-77 26 -125 14 -64 13 -87 -5 -100 -15 -12 -53 -70 -62 -97 -4 -10 -10 -18
-15 -18 -5 0 -9 -6 -9 -14 0 -25 -55 -74 -98 -86 -39 -12 -42 -16 -52 -64 -18
-89 -30 -169 -36 -251 -10 -130 -28 -143 -79 -58 -31 52 -113 143 -129 143 -5
0 -16 8 -25 18 -23 25 -49 37 -106 51 -39 10 -57 21 -80 51 -16 22 -33 39 -37
40 -3 0 -24 16 -46 36 -37 33 -39 38 -31 67 6 18 12 43 14 57 2 14 9 44 15 68
6 24 8 47 5 53 -4 5 -3 9 2 9 7 0 9 54 4 130 -1 14 -16 43 -34 64 -52 64 -145
156 -157 156 -6 0 -8 5 -5 10 3 6 -1 10 -9 10 -8 0 -22 10 -30 22 -15 21 -17
21 -88 7 -40 -7 -77 -14 -83 -15 -5 -1 -12 -3 -15 -4 -3 -1 -14 -4 -25 -5 -11
-2 -51 -10 -89 -18 -66 -15 -69 -14 -105 6 -57 35 -98 46 -114 33 -8 -6 -45
-49 -84 -96 -97 -117 -91 -114 -139 -82 -48 33 -67 49 -148 127 -186 177 -240
225 -256 225 -46 0 -181 -139 -201 -207 -15 -51 -20 -414 -6 -483 15 -82 19
-95 33 -129 14 -34 45 -67 126 -136 115 -98 218 -199 208 -205 -7 -4 -11 -9
-9 -11 1 -2 -3 -27 -10 -56 -13 -53 -4 -103 24 -143 6 -8 28 -52 50 -97 21
-46 43 -83 47 -83 4 0 8 -5 8 -11 0 -19 92 -131 174 -212 66 -65 273 -217 296
-217 6 0 22 -34 67 -137 13 -31 48 -73 164 -194 31 -32 74 -80 95 -105 21 -25
47 -56 58 -68 10 -11 30 -37 45 -56 14 -19 28 -37 31 -40 4 -3 19 -23 36 -45
16 -22 34 -44 40 -50 5 -5 23 -28 39 -50 16 -22 56 -68 89 -102 46 -49 66 -63
88 -63 28 0 29 1 23 46 -3 25 -9 64 -15 87 -11 49 -9 212 3 223 4 5 12 2 17
-6 11 -17 49 -158 54 -197 2 -16 7 -44 11 -63 3 -19 7 -42 8 -50 4 -24 17 -40
33 -40 19 0 74 58 99 104 11 20 23 36 27 36 5 0 8 4 8 9 0 5 17 38 38 72 63
105 133 239 125 239 -4 0 -3 4 2 8 6 4 19 26 29 50 l19 42 31 -18 c25 -15 329
-235 411 -297 11 -9 36 -28 57 -44 l36 -27 -29 -47 c-16 -26 -29 -51 -29 -57
0 -5 -4 -10 -8 -10 -5 0 -15 -12 -23 -27 -7 -16 -20 -35 -29 -44 -8 -9 -24
-29 -35 -45 -42 -58 -117 -149 -130 -157 -7 -4 -25 -2 -39 4 -13 6 -35 9 -48
6 -23 -6 -69 -71 -83 -118 -4 -13 -17 -44 -28 -69 -12 -25 -22 -47 -22 -50 -3
-8 -16 -43 -25 -65 -5 -11 -12 -30 -15 -42 -3 -13 -47 -64 -96 -115 -181 -186
-235 -276 -208 -344 17 -41 13 -94 -14 -164 -18 -48 -26 -83 -21 -91 3 -5 0
-9 -5 -9 -6 0 -10 -3 -10 -7 1 -5 0 -11 -1 -15 -4 -13 -6 -21 -14 -65 -4 -24
-12 -45 -17 -49 -5 -3 -7 -9 -4 -14 3 -5 1 -19 -6 -31 -6 -12 -12 -31 -13 -43
-3 -24 -78 -248 -86 -256 -3 -3 -6 -9 -6 -15 -1 -5 -13 -48 -27 -95 -37 -121
-42 -151 -36 -255 0 -11 5 -42 10 -70 12 -68 20 -114 25 -150 4 -31 9 -59 20
-108 7 -33 2 -34 -91 -22 -67 9 -131 9 -145 0 -25 -16 22 -27 128 -31 59 -2
121 -7 137 -12 33 -9 192 -8 201 1 3 3 17 2 30 -3 13 -5 24 -6 24 -2 0 4 20 7
45 7 25 0 45 -4 45 -8 0 -4 8 -3 19 2 10 6 21 8 24 5 3 -4 75 -8 159 -9 84 -2
239 -6 343 -10 467 -14 534 -17 720 -29 39 -3 126 -7 195 -10 69 -3 179 -9
245 -12 123 -5 184 -22 214 -58 17 -20 7 -43 -45 -101 -18 -21 -44 -53 -56
-71 -26 -38 -37 -44 -93 -51 -67 -9 -75 -22 -12 -20 42 1 61 -2 67 -13 18 -29
10 -83 -21 -139 l-31 -56 31 35 c17 19 31 38 31 41 0 4 7 10 16 13 29 11 102
-33 260 -161 160 -129 181 -146 214 -173 10 -8 35 -28 55 -45 21 -16 48 -39
60 -50 13 -12 38 -32 55 -45 18 -14 42 -33 54 -43 11 -11 47 -40 78 -65 38
-31 62 -59 69 -82 7 -19 24 -51 39 -70 16 -19 33 -54 39 -78 15 -53 21 -54 15
-2 -4 36 -3 40 18 41 13 1 30 3 38 4 8 1 24 3 35 4 11 0 36 16 56 34 52 46
100 79 149 104 8 4 24 15 34 25 11 10 23 18 28 18 4 0 33 17 65 39 177 118
323 211 333 211 5 0 10 4 10 9 0 5 14 14 31 21 49 21 57 43 64 185 6 133 9
172 20 247 11 70 9 88 -8 88 -14 0 -37 -40 -37 -63 0 -7 -6 -24 -14 -38 -7
-15 -21 -49 -30 -75 -10 -27 -36 -85 -59 -129 l-42 -80 -255 -127 c-140 -70
-266 -132 -280 -137 -14 -6 -32 -15 -40 -20 -32 -20 -96 -45 -112 -43 -9 0
-25 9 -36 19 -10 10 -83 79 -163 153 -79 74 -208 198 -287 276 -137 134 -143
141 -133 167 6 15 15 33 21 40 6 6 38 50 73 97 l62 85 160 1 c88 1 239 3 335
4 231 3 213 5 206 -28 -13 -68 -15 -102 -6 -102 6 0 10 6 11 13 2 36 12 73 25
99 13 24 20 28 62 29 88 2 135 -3 154 -14 15 -10 20 -9 28 3 10 16 113 18 265
4 50 -5 141 -9 202 -9 l113 0 11 -30 c17 -42 29 -56 43 -48 6 4 41 8 78 10
l68 2 1 -52 c1 -52 1 -52 14 -22 7 17 11 34 8 38 -11 18 20 34 74 37 32 1 265
3 518 4 l460 1 75 50 c41 28 79 52 84 54 28 12 57 49 62 80 4 20 8 44 10 55 5
30 12 31 52 11 55 -29 195 -121 223 -147 14 -13 37 -31 53 -41 28 -19 29 -32
9 -122 -2 -11 -6 -38 -8 -60 -2 -22 -4 -40 -5 -40 -1 0 -4 -12 -14 -60 -1 -5
-5 -16 -9 -22 -5 -8 -3 -13 3 -13 6 0 9 -4 6 -9 -6 -9 -33 -153 -42 -221 -7
-57 -24 -100 -40 -100 -8 0 -14 4 -14 8 0 5 -6 9 -12 9 -22 0 -353 145 -365
160 -11 14 -1 62 47 213 9 30 15 62 12 72 -7 27 -35 22 -54 -9 -10 -16 -38
-50 -64 -78 -69 -74 -164 -190 -164 -201 0 -10 34 -34 220 -157 150 -100 234
-159 238 -169 2 -5 8 -8 13 -8 11 0 90 -60 140 -105 46 -42 69 -53 99 -46 61
14 79 43 86 140 2 36 33 147 83 297 89 271 111 341 111 358 0 18 65 55 81 46
12 -7 14 5 14 67 0 81 6 90 58 87 15 0 30 2 32 7 3 4 -2 6 -11 5 -34 -5 -122
13 -169 34 -27 12 -70 42 -95 66 -25 24 -50 44 -57 44 -6 0 -13 4 -15 8 -3 9
-224 196 -303 257 -21 17 -51 42 -66 56 l-27 27 20 73 c17 66 25 99 33 149 3
19 -23 59 -56 87 -53 45 -135 129 -164 167 l-29 38 29 24 c16 12 49 33 73 45
39 21 62 39 47 39 -5 0 -78 -38 -149 -79 -40 -23 -36 -23 -201 -7 -14 1 -19 7
-17 21 4 22 50 91 94 141 17 19 26 34 22 34 -10 0 -60 -57 -116 -133 l-43 -58
-57 5 c-56 5 -102 25 -111 49 -2 7 -5 37 -5 67 -1 32 -11 75 -24 102 l-21 48
83 80 c74 71 124 117 224 201 17 15 52 45 78 67 48 41 51 42 140 27 63 -11 56
-9 278 -64 113 -28 241 -62 285 -77 44 -14 85 -27 90 -28 57 -13 78 -42 110
-151 10 -33 21 -69 26 -80 5 -11 11 -29 12 -40 2 -11 6 -27 9 -35 3 -8 11 -33
16 -55 6 -22 18 -67 27 -100 30 -108 55 -210 55 -220 0 -11 -17 -31 -151 -175
-93 -100 -118 -130 -119 -142 0 -16 34 -7 89 22 31 16 101 46 156 66 55 21
115 47 132 58 42 27 53 78 30 136 -3 8 -8 33 -11 55 -7 51 -14 95 -26 170 -9
60 -16 110 -26 194 -3 24 -9 54 -14 66 -4 12 -7 73 -6 136 1 63 -2 127 -6 144
-4 16 -6 37 -3 46 5 15 10 17 55 21 11 1 16 6 12 10 -4 4 -25 3 -47 -3 -28 -8
-49 -8 -78 1 -22 6 -65 14 -96 17 -46 4 -194 52 -356 116 -16 6 -32 12 -35 12
-3 1 -23 9 -45 19 -101 44 -264 110 -275 111 -29 5 -81 39 -96 64 -10 17 -23
31 -29 31 -23 0 -53 39 -48 62 4 19 1 17 -17 -9 -23 -35 -69 -50 -112 -38 -21
5 -21 5 -6 -8 15 -12 14 -18 -18 -81 -38 -76 -66 -100 -279 -241 -66 -44 -122
-83 -125 -86 -10 -12 -47 -2 -77 19 -17 12 -36 22 -41 22 -6 0 -12 4 -14 8 -4
12 -95 72 -107 72 -6 0 -11 3 -11 8 0 4 -18 18 -40 32 -22 14 -40 28 -40 32 0
4 -8 9 -17 12 -10 4 -32 19 -50 34 -54 47 -66 56 -144 110 -100 69 -106 77
-113 143 -4 31 -9 67 -12 80 -14 66 -20 109 -30 221 -6 64 -5 68 17 77 47 17
60 44 64 127 3 44 7 97 10 119 3 22 8 71 11 110 3 38 8 73 10 77 2 3 0 9 -6
13 -6 4 -8 11 -4 16 7 13 -25 51 -37 43 -5 -3 -10 2 -10 10 -2 24 -4 30 -10
41 -4 6 -23 61 -44 124 -30 92 -36 123 -31 162 5 43 76 271 97 311 5 9 11 34
14 55 3 21 8 44 10 51 7 18 -49 76 -94 98 -23 10 -41 22 -41 27 0 4 -6 7 -12
7 -7 0 -26 10 -41 23 -74 58 -82 66 -72 75 6 5 53 25 105 45 164 61 167 62
184 48 9 -8 16 -17 16 -22 0 -13 214 -226 285 -284 132 -107 255 -250 255
-296 0 -21 -26 -49 -100 -109 -108 -86 -120 -100 -107 -124 7 -11 14 -23 17
-26 14 -14 70 -90 70 -95 0 -3 9 -16 20 -28 11 -12 39 -42 61 -67 162 -180
230 -235 324 -260 63 -18 131 -16 163 3 6 5 12 5 12 2 0 -4 6 0 14 7 8 7 25
21 38 31 39 28 70 100 71 165 1 94 -80 305 -194 501 -59 100 -74 104 -211 57
-86 -30 -98 -31 -98 -11 0 8 -4 15 -10 15 -5 0 -16 12 -24 28 -18 32 -54 72
-214 237 -148 153 -187 199 -213 254 -19 42 -20 46 -4 57 9 7 27 10 38 8 106
-22 143 -13 196 49 13 16 37 41 53 57 15 16 28 33 28 39 0 6 4 11 9 11 13 0
35 59 38 105 7 107 4 135 -18 181 -17 38 -23 70 -24 144 -1 52 -6 106 -10 120
-3 14 -7 32 -7 40 0 8 -5 21 -11 28 -5 6 -6 12 -3 12 4 0 -1 14 -11 30 -9 17
-21 30 -25 30 -17 0 -68 58 -83 95 -30 72 -49 109 -73 148 -32 49 -65 49 -185
-1 -86 -35 -127 -42 -127 -22 0 5 -14 32 -30 61 -35 59 -36 95 -1 172 11 27
21 52 21 57 0 5 4 10 8 12 4 2 20 23 35 48 14 25 42 63 61 84 33 37 36 38 77
32 24 -4 40 -4 37 0 -8 7 34 94 60 125 9 11 31 35 49 54 22 22 30 39 26 53 -3
13 1 21 11 24 14 2 12 8 -9 30 -14 15 -25 32 -25 38 0 5 -4 10 -10 10 -5 0
-10 9 -10 20 0 29 -14 25 -41 -14 -13 -18 -51 -63 -84 -99 -74 -80 -119 -136
-123 -152 -2 -6 7 -16 18 -21 20 -9 18 -12 -29 -64 -63 -69 -111 -150 -151
-254 -47 -121 -52 -129 -102 -156 -68 -37 -144 -101 -165 -137 -9 -18 -21 -33
-25 -33 -5 0 -8 -5 -8 -10 0 -12 -116 -215 -142 -249 -19 -25 -73 -62 -94 -65
-7 -1 -18 -6 -25 -12 -8 -5 -27 -16 -44 -24 -49 -23 -150 -83 -153 -92 -2 -4
-8 -8 -12 -8 -5 0 -45 -24 -88 -52 -139 -94 -134 -93 -187 -41 -49 47 -55 73
-53 214 2 166 -4 176 -118 215 l-52 17 15 43 15 43 -52 103 c-61 122 -83 162
-100 183 -7 8 -10 15 -6 15 4 0 -9 25 -28 54 l-35 55 57 28 c31 15 60 33 64
38 4 6 8 6 8 1 0 -4 15 3 34 18 19 14 38 26 43 26 5 0 15 9 23 19 7 11 16 18
20 16 3 -2 19 9 36 23 17 15 50 43 74 62 102 83 187 184 235 280 27 53 27 57
20 165 -4 60 -9 137 -11 170 -2 33 -4 69 -5 80 -4 47 2 75 15 75 33 0 163 52
212 85 66 43 80 55 157 128 33 31 62 57 63 57 2 0 27 23 56 51 65 62 86 77
118 83 14 2 27 6 30 7 3 1 10 3 15 4 6 1 17 4 25 8 18 6 71 20 85 22 6 1 42 7
82 14 102 18 112 19 263 26 183 9 370 12 370 5 0 -3 35 -5 78 -6 71 -1 140 -7
202 -19 14 -2 43 -7 65 -10 65 -9 203 -43 304 -75 180 -57 334 -148 482 -282
55 -51 89 -71 89 -52 0 5 -19 46 -71 160 -11 22 -19 48 -19 57 0 9 -4 18 -9
21 -14 9 -1 45 18 48 15 3 80 -3 186 -17 41 -5 70 -10 117 -21 15 -3 30 -5 33
-5 2 0 22 -6 42 -13 41 -14 63 -11 63 8 0 10 -32 32 -60 41 -3 1 -25 11 -50
23 -45 21 -155 65 -155 62 0 -2 -36 10 -88 30 -56 22 -353 97 -416 105 -23 3
-46 7 -50 9 -3 2 -26 7 -51 11 -25 4 -48 9 -52 12 -5 2 -30 6 -56 8 -26 2 -47
4 -47 5 0 2 -33 7 -95 15 -30 3 -68 8 -85 10 -166 20 -733 20 -838 -1 -12 -2
-37 -6 -57 -9 -19 -3 -71 -14 -115 -24 -44 -11 -83 -17 -87 -15 -8 5 134 148
238 241 37 32 71 63 78 68 10 9 83 66 111 87 6 4 24 18 40 31 54 42 256 177
266 177 5 0 9 4 9 9 0 5 8 11 18 15 9 3 38 19 64 36 94 58 260 137 312 147 11
2 24 7 30 12 10 8 32 14 96 26 36 7 80 26 80 35 0 13 -81 24 -202 29 -16 1
-28 5 -28 9 0 5 25 33 56 63 80 78 82 79 93 79 5 0 14 6 18 13 9 15 147 107
161 107 5 0 19 11 32 25 l23 25 -34 0 c-49 0 -153 -24 -234 -53 -90 -33 -371
-181 -403 -214 -7 -7 -18 -11 -23 -8 -5 4 -9 2 -9 -2 0 -5 -14 -18 -31 -28
-94 -59 -221 -152 -284 -206 -100 -87 -310 -304 -437 -450 -79 -91 -89 -103
-121 -142 -53 -65 -180 -198 -184 -193 -10 10 -284 -86 -408 -143 -29 -14 -42
-16 -47 -7 -9 13 -2 70 19 151 21 82 17 71 42 151 15 50 18 88 15 215 -1 85
-5 165 -8 179 -2 14 -7 45 -10 70 -3 25 -10 60 -15 78 -5 18 -10 33 -10 35 0
24 -89 269 -101 277 -4 3 -10 14 -14 25 -3 11 -22 44 -41 73 -19 30 -35 56
-35 58 0 5 -40 64 -50 74 -3 3 -21 28 -40 55 -46 66 -127 147 -225 226 -44 35
-82 66 -85 70 -10 13 -126 84 -172 106 -58 27 -179 64 -189 57 -4 -2 -9 0 -11
5 -1 5 -23 12 -48 16 -50 8 -446 16 -452 9z m1721 -1961 c-13 -17 -101 -103
-134 -131 -25 -21 -152 -83 -181 -88 -26 -5 -26 -4 -20 42 3 26 13 54 23 63
16 14 137 75 152 76 3 1 21 9 39 18 17 10 32 16 32 13 0 -2 17 2 38 10 54 19
68 18 51 -3z m-2509 -2428 c0 -8 4 -15 8 -15 4 0 14 -17 21 -37 8 -21 22 -50
33 -65 11 -16 16 -28 12 -28 -4 0 0 -8 8 -17 8 -10 27 -47 42 -83 16 -36 34
-78 42 -95 42 -96 51 -134 48 -211 -1 -44 -5 -90 -9 -104 -3 -14 -8 -36 -10
-50 -16 -92 -54 -198 -92 -259 -1 -2 -9 1 -16 7 -8 7 -16 10 -19 7 -3 -3 -13
4 -23 15 -10 11 -22 20 -27 20 -6 0 -20 8 -33 18 -12 9 -31 23 -41 30 -30 20
-144 96 -169 112 -162 105 -235 160 -235 176 0 8 8 27 19 42 10 15 33 51 51
80 18 30 38 59 45 65 6 7 14 19 17 27 10 28 100 140 119 151 11 5 28 8 38 4
11 -3 25 3 38 17 23 25 71 103 80 131 3 9 9 17 13 17 5 0 11 14 15 30 7 31 25
42 25 15z m1718 -1117 c-4 -27 -23 -71 -52 -118 -57 -93 -147 -270 -174 -343
-20 -53 -20 -54 -2 -82 10 -16 49 -55 87 -87 37 -33 71 -67 74 -76 7 -19 3
-89 -16 -242 -6 -52 -41 -247 -45 -260 -1 -3 -2 -8 -1 -12 0 -3 -6 -41 -14
-83 -20 -102 -19 -138 5 -185 11 -22 18 -40 15 -40 -3 0 1 -10 9 -22 8 -13 18
-42 22 -65 6 -41 5 -42 -17 -37 -74 15 -149 25 -185 25 -47 0 -89 27 -214 139
-40 36 -78 68 -85 73 -7 4 -27 28 -43 55 -16 26 -44 61 -62 79 -24 24 -34 43
-37 77 -3 25 -12 51 -21 58 -13 11 -14 8 -8 -27 9 -46 9 -45 7 -67 0 -10 -9
-18 -20 -18 -17 0 -111 -45 -121 -59 -3 -3 -39 -24 -80 -45 -41 -22 -90 -49
-109 -62 -37 -25 -57 -22 -67 9 -3 11 -14 29 -24 39 -12 13 -16 32 -14 66 1
26 3 47 4 47 1 0 3 11 5 25 1 14 5 36 8 50 4 14 9 38 12 54 3 16 10 36 14 45
5 9 9 18 9 21 -1 9 13 54 29 95 56 141 79 171 138 181 22 3 43 8 48 11 4 2 20
7 35 10 15 3 32 6 37 7 6 2 28 6 50 11 22 4 45 10 50 14 6 3 18 7 27 8 26 4
125 39 203 72 51 22 71 35 73 50 2 12 -1 21 -7 21 -5 0 -16 6 -24 14 -7 8 -74
51 -147 96 -203 125 -210 130 -202 148 12 33 86 112 104 112 5 0 24 7 41 15
140 65 428 170 577 210 8 2 35 11 60 19 25 8 47 15 49 15 2 1 1 -18 -1 -41z
m-758 -1575 c13 -16 46 -55 74 -88 28 -33 54 -61 59 -63 4 -2 7 -8 7 -14 0 -6
13 -27 29 -47 42 -53 41 -55 -117 -189 -80 -67 -96 -86 -117 -132 -33 -71 -39
-80 -52 -80 -7 0 -13 -4 -13 -9 0 -5 11 -8 24 -5 21 3 23 0 23 -29 -1 -69 13
-194 33 -287 21 -101 21 -107 -13 -133 -18 -13 -47 -32 -64 -41 -18 -9 -33
-21 -33 -27 0 -8 4 -8 13 -1 6 5 34 19 60 30 l48 21 32 -30 32 -31 -60 -53
c-33 -30 -58 -56 -55 -59 3 -2 32 15 64 40 63 47 80 52 109 29 18 -13 20 -53
3 -95 -3 -8 -8 -26 -11 -40 -15 -73 -53 -194 -61 -197 -6 -2 -65 24 -132 57
-67 33 -124 59 -126 57 -2 -1 -12 5 -22 13 -11 8 -30 21 -43 28 -13 8 -40 23
-60 34 -64 36 -115 75 -151 114 -37 40 -133 174 -126 174 3 0 -1 12 -9 27 -17
33 -13 121 9 188 17 53 21 61 57 140 13 28 24 52 24 55 1 8 59 94 68 101 10 7
27 65 32 114 3 22 7 49 9 60 2 11 7 40 11 65 4 25 11 52 15 60 8 16 23 113 22
142 -1 16 67 55 113 64 11 3 63 18 115 34 122 37 150 38 180 3z"/>
<path d="M8248 2373 c-10 -2 -18 -9 -18 -14 0 -6 10 -5 23 2 37 20 36 23 -5
12z"/>
</g>
</svg>
